<svg height="512pt" viewBox="0 -24 512.00166 512" width="512pt" xmlns="http://www.w3.org/2000/svg"><path d="m166.015625 224.992188c-41.351563 0-74.996094 33.640624-74.996094 74.996093 0 41.351563 33.644531 74.996094 74.996094 74.996094s74.996094-33.644531 74.996094-74.996094c0-41.355469-33.644531-74.996093-74.996094-74.996093zm0 119.992187c-24.8125 0-44.996094-20.1875-44.996094-44.996094 0-24.8125 20.183594-45 44.996094-45s45 20.1875 45 45c0 24.808594-20.1875 44.996094-45 44.996094zm0 0"/><path d="m497 134.996094h-240.988281c-3.976563 0-7.792969 1.578125-10.605469 4.390625s-3.394531 6.628906-3.394531 10.609375v14.996094h-30.996094v-14.996094c0-8.285156-6.714844-15-15-15h-24.664063c-18.8125 0-37.453124 3.039062-55.160156 8.84375-3.050781-8.113282-7.867187-15.527344-14.238281-21.753906-11.273437-11.019532-26.164063-17.089844-41.933594-17.089844-33.082031 0-59.9960935 26.917968-59.9960935 60 0 19.464844 9.6484375 37.476562 24.8710935 48.578125-11.425781 17.851562-19.167969 37.730469-22.589843 58.613281-4.527344 27.628906-2.3789068 54.773438 6.378906 80.679688 8.242187 24.367187 22.351562 46.820312 40.8125 64.921874 36.921875 36.214844 90.238281 54.703126 146.710937 44.320313 60.628907-11.148437 110.988281-56.546875 128.296875-115.664063 14.121094-48.21875 34.839844-71.246093 69.265625-76.953124l105.296875-14.644532c7.414063-1.03125 12.933594-7.371094 12.933594-14.855468v-89.996094c0-8.285156-6.714844-15-15-15zm-466.976562 29.996094c0-16.539063 13.457031-29.996094 29.996093-29.996094 13.132813 0 24.484375 8.679687 28.472657 20.601562-9.445313 4.992188-18.457032 10.839844-26.878907 17.511719-6.5625 5.191406-12.65625 10.8125-18.265625 16.789063-8.117187-5.484376-13.324218-14.796876-13.324218-24.90625zm359.425781 74.8125c-.117188.015624-.238281.035156-.359375.054687-60.851563 9.976563-82.433594 60.792969-93.375 98.152344-14.15625 48.347656-55.34375 85.476562-104.933594 94.59375-94.109375 17.300781-174.160156-62.273438-158.871094-155.570313 10.464844-63.875 70.414063-112.042968 139.441406-112.042968h9.664063v15c0 8.285156 6.714844 15 15 15h59.996094c8.277343 0 15-6.71875 15-15v-15h149.992187v70.421874zm92.550781-12.871094-30.996094 4.308594v-66.25h30.996094zm0 0"/><path d="m226.011719 74.996094c8.285156 0 15-6.714844 15-15v-44.996094c0-8.285156-6.714844-15-15-15-8.28125 0-14.996094 6.714844-14.996094 15v44.996094c0 8.285156 6.714844 15 14.996094 15zm0 0"/><path d="m296.617188 100.601562 30-29.996093c5.855468-5.859375 5.855468-15.355469 0-21.214844-5.859376-5.855469-15.355469-5.855469-21.214844 0l-29.996094 30c-5.859375 5.855469-5.859375 15.355469 0 21.210937 5.855469 5.859376 15.351562 5.859376 21.210938 0zm0 0"/><path d="m155.410156 100.601562c5.855469 5.859376 15.355469 5.859376 21.210938 0 5.859375-5.855468 5.859375-15.355468 0-21.210937l-29.996094-30c-5.859375-5.855469-15.355469-5.855469-21.214844 0-5.855468 5.859375-5.855468 15.355469 0 21.214844zm0 0"/></svg>