<?xml version="1.0" encoding="iso-8859-1"?>
<!-- Generator: Adobe Illustrator 19.1.0, SVG Export Plug-In . SVG Version: 6.00 Build 0)  -->
<svg version="1.1" id="Capa_1" xmlns="http://www.w3.org/2000/svg" xmlns:xlink="http://www.w3.org/1999/xlink" x="0px" y="0px"
	 viewBox="0 0 522.119 522.119" style="enable-background:new 0 0 522.119 522.119;" xml:space="preserve">
<g>
	<g>
		<path d="M74.588,522.119h372.942c7.459,0,12.431-4.973,12.431-12.431V62.157c0-7.459-4.973-12.431-12.431-12.431H335.648V12.431
			C335.648,4.973,330.676,0,323.217,0H198.903c-7.459,0-12.431,4.973-12.431,12.431v37.294H74.588
			c-7.459,0-12.431,4.973-12.431,12.431v447.531C62.157,517.147,67.13,522.119,74.588,522.119z M198.903,124.314h124.314h62.157
			v323.217H136.746V124.314H198.903z M211.334,24.863h99.451v74.588h-99.451V24.863z M87.02,74.588h99.451v24.863h-62.157
			c-7.459,0-12.431,4.973-12.431,12.431v348.08c0,7.459,4.973,12.431,12.431,12.431h273.491c7.459,0,12.431-4.973,12.431-12.431
			v-348.08c0-7.459-4.973-12.431-12.431-12.431h-62.157V74.588h99.451v422.668H87.02V74.588z"/>
		<path d="M285.922,49.726h-49.726c-7.459,0-12.431,4.973-12.431,12.431s4.973,12.431,12.431,12.431h49.726
			c7.459,0,12.431-4.973,12.431-12.431S293.381,49.726,285.922,49.726z"/>
		<path d="M164.095,218.793c2.486,2.486,4.973,2.486,9.945,2.486c4.973,0,7.459,0,9.945-2.486l14.918-14.918l14.918,14.918
			c2.486,2.486,4.973,2.486,9.945,2.486c4.973,0,7.459,0,9.945-2.486c4.973-4.973,4.973-12.431,0-17.404l-17.404-17.404
			l14.918-14.918c4.973-4.973,4.973-12.431,0-17.404s-12.431-4.973-17.404,0l-14.918,14.918l-17.404-14.918
			c-4.973-4.973-12.431-4.973-17.404,0c-4.973,4.973-4.973,12.431,0,17.404l14.918,14.918l-14.918,14.918
			C159.122,206.361,159.122,213.82,164.095,218.793z"/>
		<path d="M355.538,325.703c-4.973-4.973-12.431-4.973-17.404,0l-14.918,14.918l-14.918-14.918c-4.973-4.973-12.431-4.973-17.404,0
			s-4.973,12.431,0,17.404l14.918,14.918l-14.918,14.918c-4.973,4.973-4.973,12.431,0,17.404c2.486,2.486,4.973,2.486,9.945,2.486
			s7.459,0,9.945-2.486l14.918-14.918l14.918,14.918c2.486,2.486,4.973,2.486,9.945,2.486s7.459,0,9.945-2.486
			c4.973-4.973,4.973-12.431,0-17.404l-14.918-14.918l14.918-14.918C360.511,338.134,360.511,330.676,355.538,325.703z"/>
		<path d="M164.095,392.833c2.486,2.486,4.973,2.486,9.945,2.486c4.973,0,7.459,0,9.945-2.486l14.918-14.918l14.918,14.918
			c2.486,2.486,4.973,2.486,9.945,2.486c4.973,0,7.459,0,9.945-2.486c4.973-4.973,4.973-12.431,0-17.404l-14.918-14.918
			l14.918-14.918c4.973-4.973,4.973-12.431,0-17.404s-12.431-4.973-17.404,0l-14.918,14.918l-14.918-14.918
			c-4.973-4.973-12.431-4.973-17.404,0c-4.973,4.973-4.973,12.431,0,17.404l14.918,14.918l-14.918,14.918
			C159.122,380.401,159.122,387.86,164.095,392.833z"/>
		<path d="M303.326,191.444l7.459-7.459c-4.973,77.075-79.561,84.534-124.314,84.534c-7.459,0-12.431,4.973-12.431,12.431
			c0,7.459,4.973,12.431,12.431,12.431c4.973,0,7.459,0,12.431,0c82.047,0,134.259-39.781,139.232-106.91l4.973,4.973
			c2.486,2.486,4.973,4.973,9.945,4.973c2.486,0,4.973,0,7.459-2.486c4.973-4.973,4.973-12.431,0-17.404l-27.349-29.835
			c-2.486-2.486-4.973-4.973-9.945-4.973l0,0c-2.486,0-7.459,2.486-9.945,4.973l-27.349,27.349c-4.973,4.973-4.973,12.431,0,17.404
			C290.895,196.416,300.84,196.416,303.326,191.444z"/>
	</g>
</g>
<g>
</g>
<g>
</g>
<g>
</g>
<g>
</g>
<g>
</g>
<g>
</g>
<g>
</g>
<g>
</g>
<g>
</g>
<g>
</g>
<g>
</g>
<g>
</g>
<g>
</g>
<g>
</g>
<g>
</g>
</svg>
