<svg height="480pt" viewBox="-32 0 480 480.00293" width="480pt" xmlns="http://www.w3.org/2000/svg"><path d="m375.996094 80.003906c-8.683594.027344-17.117188 2.914063-24 8.207032v-16.207032c-.027344-22.082031-17.917969-39.972656-40-40-8.683594.027344-17.117188 2.914063-24 8.207032v-.207032c-.027344-22.082031-17.917969-39.972656-40-39.99999975-8.679688.03124995-17.113282 2.91015575-24 8.19921875-12.054688-9.234375-28.3125-10.800781-41.910156-4.046875-13.597657 6.757812-22.167969 20.664062-22.089844 35.847656v.199219c-12.054688-9.234375-28.3125-10.800781-41.910156-4.046875-13.597657 6.757812-22.167969 20.664062-22.089844 35.847656v68.320313c-8.425782-.027344-16.707032 2.179687-24 6.398437l-.085938.0625c-14.898437-8.277344-33.015625-8.277344-47.914062 0-22.933594 13.289063-30.804688 42.621094-17.597656 65.601563l52.277343 90.398437 45.320313 67.617188v101.601562c0 4.417969 3.582031 8 8 8h264c4.417968 0 8-3.582031 8-8v-101.191406l19.730468-24.664062c7.921876-9.929688 12.246094-22.246094 12.269532-34.945313v-191.199219c-.027344-22.082031-17.917969-39.972656-40-40zm-176-64c4.808594.003906 9.5 1.46875 13.457031 4.199219-3.53125 6.003906-5.414063 12.835937-5.457031 19.800781v.207032c-8.660156-6.867188-19.882813-9.613282-30.734375-7.527344 3.152343-9.90625 12.339843-16.644532 22.734375-16.679688zm-64 32c4.808594.003906 9.5 1.46875 13.457031 4.199219-3.53125 6.003906-5.414063 12.835937-5.457031 19.800781v103.421875l-6.398438-11.136719c-5.734375-9.851562-14.820312-17.316406-25.601562-21.023437v-71.261719c0-13.253906 10.746094-24 24-24zm-63.710938 246.320313-52-89.984375c-8.804687-15.320313-3.570312-34.875 11.710938-43.746094 8.128906-4.570312 17.828125-5.445312 26.640625-2.398438-12.496094 15.390626-14.183594 36.90625-4.230469 54.054688l52.277344 90.519531 43.714844 65.234375h-30.402344c0-1.585937-.46875-3.132812-1.351563-4.449218zm95.710938 121.679687h136c4.417968 0 8 3.582032 8 8 0 4.417969-3.582032 8-8 8h-136zm-48-32h32v80h-32zm248 80h-200v-16h136c13.253906 0 24-10.746094 24-24s-10.746094-24-24-24h-136v-16h200zm32-152.800781c-.019532 9.082031-3.125 17.890625-8.800782 24.984375l-21.476562 26.847656c-1.117188 1.414063-1.722656 3.164063-1.722656 4.96875h-200c.003906-1.585937-.46875-3.136718-1.351563-4.457031l-46.359375-69.191406-52-90.066407c-5.808594-9.90625-5.863281-22.164062-.144531-32.121093 5.722656-9.957031 16.335937-16.085938 27.820313-16.0625 11.484374.027343 22.074218 6.203125 27.75 16.183593l52 90.066407c1.417968 2.496093 4.0625 4.039062 6.933593 4.046875 2.871094.003906 5.527344-1.527344 6.957031-4.015625 1.429688-2.492188 1.414063-5.554688-.035156-8.03125l-30.042968-52c.277343-.753907.4375-1.550781.472656-2.351563v-128c0-13.253906 10.746094-24 24-24s24 10.746094 24 24v64c0 4.417969 3.582031 8 8 8 4.417968 0 8-3.582031 8-8v-96c0-13.253906 10.746094-24 24-24s24 10.746094 24 24v96c0 4.417969 3.582031 8 8 8 4.417968 0 8-3.582031 8-8v-64c0-13.253906 10.746094-24 24-24s24 10.746094 24 24v112c0 4.417969 3.582031 8 8 8 4.417968 0 8-3.582031 8-8v-64c0-13.253906 10.746094-24 24-24s24 10.746094 24 24zm0 0"/></svg>